<?xml version="1.0" encoding="UTF-8" standalone="no"?>
<svg viewBox="0 0 50 50"
 xmlns="http://www.w3.org/2000/svg" xmlns:xlink="http://www.w3.org/1999/xlink" version="1.2" baseProfile="tiny">
<title>Qt SVG Document</title>
<desc>Generated with Qt</desc>
<defs>
</defs>
<g fill="none" stroke="black" stroke-width="1" fill-rule="evenodd" stroke-linecap="square" stroke-linejoin="bevel" >

<g fill="#050505" fill-opacity="1" stroke="none" transform="matrix(2.27273,0,0,2.27273,120.455,-70.8182)"
font-family="Noto Sans" font-size="10" font-weight="400" font-style="normal" 
opacity="0.00100002" >
<rect x="-53" y="31.16" width="22" height="22"/>
</g>

<g fill="#2b4254" fill-opacity="1" stroke="none" transform="matrix(2.27273,0,0,2.27273,120.455,-70.8182)"
font-family="Noto Sans" font-size="10" font-weight="400" font-style="normal" 
opacity="0.0001" >
<path vector-effect="none" fill-rule="nonzero" d="M-42,32.16 C-47.5227,32.16 -52,36.6372 -52,42.16 C-52,47.6828 -47.5227,52.16 -42,52.16 C-36.4772,52.16 -32,47.6828 -32,42.16 C-32,36.6372 -36.4772,32.16 -42,32.16 M-42,33.41 C-37.1676,33.41 -33.25,37.3275 -33.25,42.16 C-33.25,46.9925 -37.1676,50.91 -42,50.91 C-46.8324,50.91 -50.75,46.9925 -50.75,42.16 C-50.75,37.3275 -46.8324,33.41 -42,33.41 M-42,33.41"/>
</g>

<g fill="#ffffff" fill-opacity="1" stroke="none" transform="matrix(2.27273,0,0,2.27273,120.455,-70.8182)"
font-family="Noto Sans" font-size="10" font-weight="400" font-style="normal" 
opacity="0.0001" >
<path vector-effect="none" fill-rule="evenodd" d="M-51,42.07 C-51,37.1491 -47.0109,33.16 -42.09,33.16 L-41.91,33.16 C-36.9891,33.16 -33,37.1491 -33,42.07 L-33,42.25 C-33,47.1709 -36.9891,51.16 -41.91,51.16 L-42.09,51.16 C-47.0109,51.16 -51,47.1709 -51,42.25 L-51,42.07"/>
</g>

<g fill="#a6a6a6" fill-opacity="1" stroke="none" transform="matrix(2.27273,0,0,2.27273,120.455,-70.8182)"
font-family="Noto Sans" font-size="10" font-weight="400" font-style="normal" 
>
<path vector-effect="none" fill-rule="nonzero" d="M-45.8571,46.66 C-46.0216,46.66 -46.1861,46.5972 -46.3117,46.4717 C-46.5628,46.2206 -46.5628,45.8137 -46.3117,45.5626 L-38.5974,37.8483 C-38.3463,37.5972 -37.9394,37.5972 -37.6883,37.8483 C-37.4372,38.0995 -37.4372,38.5063 -37.6883,38.7574 L-45.4026,46.4717 C-45.5282,46.5972 -45.6927,46.66 -45.8571,46.66 "/>
</g>

<g fill="#a6a6a6" fill-opacity="1" stroke="none" transform="matrix(2.27273,0,0,2.27273,120.455,-70.8182)"
font-family="Noto Sans" font-size="10" font-weight="400" font-style="normal" 
>
<path vector-effect="none" fill-rule="nonzero" d="M-38.1429,46.66 C-38.3073,46.66 -38.4718,46.5972 -38.5974,46.4717 L-46.3117,38.7574 C-46.5628,38.5063 -46.5628,38.0995 -46.3117,37.8483 C-46.0606,37.5972 -45.6537,37.5972 -45.4026,37.8483 L-37.6883,45.5626 C-37.4372,45.8137 -37.4372,46.2206 -37.6883,46.4717 C-37.8139,46.5972 -37.9784,46.66 -38.1429,46.66 "/>
</g>

<g fill="none" stroke="#000000" stroke-opacity="1" stroke-width="1" stroke-linecap="square" stroke-linejoin="bevel" transform="matrix(1,0,0,1,0,0)"
font-family="Noto Sans" font-size="10" font-weight="400" font-style="normal" 
>
</g>
</g>
</svg>
