<?xml version="1.0" encoding="UTF-8" standalone="no"?>
<svg viewBox="0 0 50 50"
 xmlns="http://www.w3.org/2000/svg" xmlns:xlink="http://www.w3.org/1999/xlink" version="1.2" baseProfile="tiny">
<title>Qt SVG Document</title>
<desc>Generated with Qt</desc>
<defs>
</defs>
<g fill="none" stroke="black" stroke-width="1" fill-rule="evenodd" stroke-linecap="square" stroke-linejoin="bevel" >

<g fill="#000000" fill-opacity="1" stroke="none" transform="matrix(2.27273,0,0,2.27273,59.0909,-82.1818)"
font-family="Noto Sans" font-size="10" font-weight="400" font-style="normal" 
opacity="0.00100002" >
<rect x="-26" y="36.16" width="22" height="22"/>
</g>

<g fill="#2b4254" fill-opacity="1" stroke="none" transform="matrix(2.27273,0,0,2.27273,59.0909,-82.1818)"
font-family="Noto Sans" font-size="10" font-weight="400" font-style="normal" 
opacity="0.0001" >
<path vector-effect="none" fill-rule="nonzero" d="M-15,38.16 C-19.9705,38.16 -24,42.1894 -24,47.16 C-24,52.1306 -19.9705,56.16 -15,56.16 C-10.0295,56.16 -6,52.1306 -6,47.16 C-6,42.1894 -10.0295,38.16 -15,38.16 M-15,39.285 C-10.6508,39.285 -7.125,42.8107 -7.125,47.16 C-7.125,51.5092 -10.6508,55.035 -15,55.035 C-19.3492,55.035 -22.875,51.5092 -22.875,47.16 C-22.875,42.8107 -19.3492,39.285 -15,39.285 M-15,39.285"/>
</g>

<g fill="#4e5a7e" fill-opacity="1" stroke="none" transform="matrix(2.27273,0,0,2.27273,59.0909,-82.1818)"
font-family="Noto Sans" font-size="10" font-weight="400" font-style="normal" 
opacity="0.0001" >
<path vector-effect="none" fill-rule="evenodd" d="M-22.875,47.0812 C-22.875,42.7755 -19.3845,39.285 -15.0788,39.285 L-14.9213,39.285 C-10.6155,39.285 -7.12501,42.7755 -7.12501,47.0812 L-7.12501,47.2387 C-7.12501,51.5445 -10.6155,55.035 -14.9213,55.035 L-15.0788,55.035 C-19.3845,55.035 -22.875,51.5445 -22.875,47.2387 L-22.875,47.0812"/>
</g>

<g fill="#a6a6a6" fill-opacity="1" stroke="none" transform="matrix(2.27273,0,0,2.27273,59.0909,-82.1818)"
font-family="Noto Sans" font-size="10" font-weight="400" font-style="normal" 
opacity="0.987685" >
<path vector-effect="none" fill-rule="nonzero" d="M-21.0676,46.16 C-20.9396,46.1601 -20.8169,46.2111 -20.7265,46.3016 L-15.0328,51.9953 L-9.3391,46.3016 C-9.14887,46.1244 -8.85247,46.1297 -8.66864,46.3135 C-8.4848,46.4973 -8.47955,46.7937 -8.65676,46.984 L-14.6916,53.0188 C-14.8801,53.2071 -15.1855,53.2071 -15.374,53.0188 L-21.4088,46.984 C-21.5467,46.8459 -21.5879,46.6384 -21.5133,46.4581 C-21.4386,46.2778 -21.2628,46.1602 -21.0676,46.16 "/>
</g>

<g fill="#a6a6a6" fill-opacity="1" stroke="none" transform="matrix(2.27273,0,0,2.27273,59.0909,-82.1818)"
font-family="Noto Sans" font-size="10" font-weight="400" font-style="normal" 
>
<path vector-effect="none" fill-rule="nonzero" d="M-9.00959,48.16 C-9.13759,48.1599 -9.26031,48.1089 -9.35077,48.0184 L-15.0444,42.3247 L-20.7381,48.0184 C-20.9284,48.1956 -21.2248,48.1903 -21.4086,48.0065 C-21.5924,47.8227 -21.5977,47.5263 -21.4205,47.336 L-15.3856,41.3012 C-15.1971,41.1129 -14.8918,41.1129 -14.7033,41.3012 L-8.66843,47.336 C-8.53054,47.4741 -8.48931,47.6816 -8.56396,47.8619 C-8.63861,48.0422 -8.81446,48.1598 -9.00959,48.16 "/>
</g>

<g fill="none" stroke="#000000" stroke-opacity="1" stroke-width="1" stroke-linecap="square" stroke-linejoin="bevel" transform="matrix(1,0,0,1,0,0)"
font-family="Noto Sans" font-size="10" font-weight="400" font-style="normal" 
>
</g>
</g>
</svg>
