<?xml version="1.0" encoding="UTF-8" standalone="no"?>
<svg viewBox="0 0 50 50"
 xmlns="http://www.w3.org/2000/svg" xmlns:xlink="http://www.w3.org/1999/xlink" version="1.2" baseProfile="tiny">
<title>Qt SVG Document</title>
<desc>Generated with Qt</desc>
<defs>
</defs>
<g fill="none" stroke="black" stroke-width="1" fill-rule="evenodd" stroke-linecap="square" stroke-linejoin="bevel" >

<g fill="#000000" fill-opacity="1" stroke="none" transform="matrix(2.27273,0,0,2.27273,0,0)"
font-family="Noto Sans" font-size="10" font-weight="400" font-style="normal" 
opacity="0.00100002" >
<rect x="0" y="0" width="22" height="22"/>
</g>

<g fill="#2b4254" fill-opacity="1" stroke="none" transform="matrix(2.27273,0,0,2.27273,0,0)"
font-family="Noto Sans" font-size="10" font-weight="400" font-style="normal" 
opacity="0.0001" >
<path vector-effect="none" fill-rule="nonzero" d="M11,2 C6.02953,2 2,6.02944 2,11 C2,15.9706 6.02953,20 11,20 C15.9705,20 20,15.9706 20,11 C20,6.02944 15.9705,2 11,2 M11,3.125 C15.3492,3.125 18.875,6.65075 18.875,11 C18.875,15.3492 15.3492,18.875 11,18.875 C6.6508,18.875 3.125,15.3492 3.125,11 C3.125,6.65075 6.6508,3.125 11,3.125 M11,3.125"/>
</g>

<g fill="#4e5a7e" fill-opacity="1" stroke="none" transform="matrix(2.27273,0,0,2.27273,0,0)"
font-family="Noto Sans" font-size="10" font-weight="400" font-style="normal" 
opacity="0.0001" >
<path vector-effect="none" fill-rule="evenodd" d="M3.125,10.9212 C3.125,6.6155 6.6155,3.125 10.9212,3.125 L11.0787,3.125 C15.3845,3.125 18.875,6.6155 18.875,10.9212 L18.875,11.0787 C18.875,15.3845 15.3845,18.875 11.0787,18.875 L10.9212,18.875 C6.6155,18.875 3.125,15.3845 3.125,11.0787 L3.125,10.9212"/>
</g>

<g fill="#ffffff" fill-opacity="1" stroke="none" transform="matrix(2.27273,0,0,2.27273,0,0)"
font-family="Noto Sans" font-size="10" font-weight="400" font-style="normal" 
>
<path vector-effect="none" fill-rule="nonzero" d="M16.324,13.7815 C16.211,13.7814 16.1026,13.7364 16.0228,13.6564 L10.9949,8.6285 L5.96695,13.6564 C5.79896,13.8129 5.53722,13.8083 5.37487,13.6459 C5.21253,13.4836 5.2079,13.2218 5.36439,13.0539 L10.6936,7.72468 C10.86,7.55844 11.1297,7.55844 11.2961,7.72468 L16.6253,13.0539 C16.7471,13.1758 16.7835,13.359 16.7176,13.5182 C16.6516,13.6774 16.4964,13.7813 16.324,13.7815 "/>
</g>

<g fill="none" stroke="#000000" stroke-opacity="1" stroke-width="1" stroke-linecap="square" stroke-linejoin="bevel" transform="matrix(1,0,0,1,0,0)"
font-family="Noto Sans" font-size="10" font-weight="400" font-style="normal" 
>
</g>
</g>
</svg>
