<?xml version="1.0" encoding="UTF-8" standalone="no"?>
<svg viewBox="0 0 50 50"
 xmlns="http://www.w3.org/2000/svg" xmlns:xlink="http://www.w3.org/1999/xlink" version="1.2" baseProfile="tiny">
<title>Qt SVG Document</title>
<desc>Generated with Qt</desc>
<defs>
</defs>
<g fill="none" stroke="black" stroke-width="1" fill-rule="evenodd" stroke-linecap="square" stroke-linejoin="bevel" >

<g fill="#000000" fill-opacity="1" stroke="none" transform="matrix(2.27273,0,0,2.27273,59.0909,-61.7273)"
font-family="Noto Sans" font-size="10" font-weight="400" font-style="normal" 
opacity="0.00100002" >
<rect x="-26" y="27.16" width="22" height="22"/>
</g>

<g fill="#2b4254" fill-opacity="1" stroke="none" transform="matrix(2.27273,0,0,2.27273,59.0909,-61.7273)"
font-family="Noto Sans" font-size="10" font-weight="400" font-style="normal" 
opacity="0.0001" >
<path vector-effect="none" fill-rule="nonzero" d="M-15,29.16 C-19.9705,29.16 -24,33.1894 -24,38.16 C-24,43.1306 -19.9705,47.16 -15,47.16 C-10.0295,47.16 -6,43.1306 -6,38.16 C-6,33.1894 -10.0295,29.16 -15,29.16 M-15,30.285 C-10.6508,30.285 -7.125,33.8107 -7.125,38.16 C-7.125,42.5092 -10.6508,46.035 -15,46.035 C-19.3492,46.035 -22.875,42.5092 -22.875,38.16 C-22.875,33.8107 -19.3492,30.285 -15,30.285 M-15,30.285"/>
</g>

<g fill="#4e5a7e" fill-opacity="1" stroke="none" transform="matrix(2.27273,0,0,2.27273,59.0909,-61.7273)"
font-family="Noto Sans" font-size="10" font-weight="400" font-style="normal" 
opacity="0.0001" >
<path vector-effect="none" fill-rule="evenodd" d="M-22.875,38.0812 C-22.875,33.7755 -19.3845,30.285 -15.0788,30.285 L-14.9213,30.285 C-10.6155,30.285 -7.12501,33.7755 -7.12501,38.0812 L-7.12501,38.2387 C-7.12501,42.5445 -10.6155,46.035 -14.9213,46.035 L-15.0788,46.035 C-19.3845,46.035 -22.875,42.5445 -22.875,38.2387 L-22.875,38.0812"/>
</g>

<g fill="#a6a6a6" fill-opacity="1" stroke="none" transform="matrix(2.27273,0,0,2.27273,59.0909,-61.7273)"
font-family="Noto Sans" font-size="10" font-weight="400" font-style="normal" 
>
<path vector-effect="none" fill-rule="nonzero" d="M-9.67596,40.9415 C-9.78899,40.9414 -9.89736,40.8964 -9.97723,40.8164 L-15.0051,35.7885 L-20.0331,40.8164 C-20.201,40.9729 -20.4628,40.9683 -20.6251,40.8059 C-20.7875,40.6436 -20.7921,40.3818 -20.6356,40.2139 L-15.3064,34.8847 C-15.14,34.7184 -14.8703,34.7184 -14.7039,34.8847 L-9.37468,40.2139 C-9.25291,40.3358 -9.21651,40.519 -9.28243,40.6782 C-9.34836,40.8374 -9.50364,40.9413 -9.67596,40.9415 "/>
</g>

<g fill="none" stroke="#000000" stroke-opacity="1" stroke-width="1" stroke-linecap="square" stroke-linejoin="bevel" transform="matrix(1,0,0,1,0,0)"
font-family="Noto Sans" font-size="10" font-weight="400" font-style="normal" 
>
</g>
</g>
</svg>
