<?xml version="1.0" encoding="UTF-8" standalone="no"?>
<svg viewBox="0 0 50 50"
 xmlns="http://www.w3.org/2000/svg" xmlns:xlink="http://www.w3.org/1999/xlink" version="1.2" baseProfile="tiny">
<title>Qt SVG Document</title>
<desc>Generated with Qt</desc>
<defs>
</defs>
<g fill="none" stroke="black" stroke-width="1" fill-rule="evenodd" stroke-linecap="square" stroke-linejoin="bevel" >

<g fill="#000000" fill-opacity="1" stroke="none" transform="matrix(2.27273,0,0,2.27273,-49.6364,0.363637)"
font-family="Noto Sans" font-size="10" font-weight="400" font-style="normal" 
opacity="0.00100002" >
<rect x="21.84" y="-0.16" width="22" height="22"/>
</g>

<g fill="#00cccc" fill-opacity="1" stroke="none" transform="matrix(2.27273,0,0,2.27273,-49.6364,0.363637)"
font-family="Noto Sans" font-size="10" font-weight="400" font-style="normal" 
>
<path vector-effect="none" fill-rule="evenodd" d="M24,10.91 C24,5.98914 27.9891,2 32.91,2 L33.09,2 C38.0109,2 42,5.98914 42,10.91 L42,11.09 C42,16.0109 38.0109,20 33.09,20 L32.91,20 C27.9891,20 24,16.0109 24,11.09 L24,10.91"/>
</g>

<g fill="#000000" fill-opacity="1" stroke="none" transform="matrix(2.27273,0,0,2.27273,-49.6364,0.363637)"
font-family="Noto Sans" font-size="10" font-weight="400" font-style="normal" 
>
<path vector-effect="none" fill-rule="nonzero" d="M26.9324,9.84 C27.0604,9.84011 27.1831,9.89105 27.2735,9.98162 L32.9672,15.6753 L38.6609,9.98162 C38.8511,9.80441 39.1475,9.80966 39.3314,9.9935 C39.5152,10.1773 39.5204,10.4737 39.3432,10.664 L33.3084,16.6988 C33.1199,16.8871 32.8145,16.8871 32.626,16.6988 L26.5912,10.664 C26.4533,10.5259 26.4121,10.3184 26.4867,10.1381 C26.5614,9.9578 26.7372,9.84017 26.9324,9.84 "/>
</g>

<g fill="#000000" fill-opacity="1" stroke="none" transform="matrix(2.27273,0,0,2.27273,-49.6364,0.363637)"
font-family="Noto Sans" font-size="10" font-weight="400" font-style="normal" 
>
<path vector-effect="none" fill-rule="nonzero" d="M38.9904,12 C38.8624,11.9999 38.7397,11.9489 38.6492,11.8584 L32.9555,6.1647 L27.2619,11.8584 C27.0716,12.0356 26.7752,12.0303 26.5914,11.8465 C26.4076,11.6627 26.4023,11.3663 26.5795,11.176 L32.6144,5.14119 C32.8029,4.95294 33.1082,4.95294 33.2967,5.14119 L39.3316,11.176 C39.4695,11.3141 39.5107,11.5216 39.436,11.7019 C39.3614,11.8822 39.1855,11.9998 38.9904,12 "/>
</g>

<g fill="#405b8c" fill-opacity="1" stroke="none" transform="matrix(2.27273,0,0,2.27273,-49.6364,0.363637)"
font-family="Noto Sans" font-size="10" font-weight="400" font-style="normal" 
>
<path vector-effect="none" fill-rule="nonzero" d="M33,1 C27.4773,1 23,5.47716 23,11 C23,16.5228 27.4773,21 33,21 C38.5228,21 43,16.5228 43,11 C43,5.47716 38.5228,1 33,1 M33,2.25 C37.8324,2.25 41.75,6.1675 41.75,11 C41.75,15.8325 37.8324,19.75 33,19.75 C28.1676,19.75 24.25,15.8325 24.25,11 C24.25,6.1675 28.1676,2.25 33,2.25 M33,2.25"/>
</g>

<g fill="none" stroke="#000000" stroke-opacity="1" stroke-width="1" stroke-linecap="square" stroke-linejoin="bevel" transform="matrix(1,0,0,1,0,0)"
font-family="Noto Sans" font-size="10" font-weight="400" font-style="normal" 
>
</g>
</g>
</svg>
