<?xml version="1.0" encoding="UTF-8" standalone="no"?>
<svg viewBox="0 0 50 50"
 xmlns="http://www.w3.org/2000/svg" xmlns:xlink="http://www.w3.org/1999/xlink" version="1.2" baseProfile="tiny">
<title>Qt SVG Document</title>
<desc>Generated with Qt</desc>
<defs>
</defs>
<g fill="none" stroke="black" stroke-width="1" fill-rule="evenodd" stroke-linecap="square" stroke-linejoin="bevel" >

<g fill="#000000" fill-opacity="1" stroke="none" transform="matrix(2.27273,0,0,2.27273,0,0)"
font-family="Noto Sans" font-size="10" font-weight="400" font-style="normal" 
opacity="0.00100002" >
<rect x="0" y="0" width="22" height="22"/>
</g>

<g fill="#00cc98" fill-opacity="1" stroke="none" transform="matrix(2.27273,0,0,2.27273,0,0)"
font-family="Noto Sans" font-size="10" font-weight="400" font-style="normal" 
>
<path vector-effect="none" fill-rule="evenodd" d="M2,10.91 C2,5.98914 5.98914,2 10.91,2 L11.09,2 C16.0109,2 20,5.98914 20,10.91 L20,11.09 C20,16.0109 16.0109,20 11.09,20 L10.91,20 C5.98914,20 2,16.0109 2,11.09 L2,10.91"/>
</g>

<g fill="#010101" fill-opacity="1" stroke="none" transform="matrix(2.27273,0,0,2.27273,0,0)"
font-family="Noto Sans" font-size="10" font-weight="400" font-style="normal" 
>
<path vector-effect="none" fill-rule="nonzero" d="M16.324,13.7815 C16.211,13.7814 16.1026,13.7364 16.0228,13.6564 L10.9948,8.62851 L5.96692,13.6564 C5.79893,13.8129 5.53721,13.8083 5.37487,13.6459 C5.21254,13.4836 5.20789,13.2219 5.36437,13.0539 L10.6936,7.72468 C10.86,7.55844 11.1297,7.55844 11.2961,7.72468 L16.6253,13.0539 C16.7471,13.1758 16.7835,13.359 16.7176,13.5182 C16.6516,13.6775 16.4964,13.7813 16.324,13.7815 "/>
</g>

<g fill="#405b8c" fill-opacity="1" stroke="none" transform="matrix(2.27273,0,0,2.27273,0,0)"
font-family="Noto Sans" font-size="10" font-weight="400" font-style="normal" 
>
<path vector-effect="none" fill-rule="nonzero" d="M11,1 C5.47726,1 0.999999,5.47716 0.999999,11 C0.999999,16.5228 5.47726,21 11,21 C16.5228,21 21,16.5228 21,11 C21,5.47716 16.5228,1 11,1 M11,2.25 C15.8324,2.25 19.75,6.1675 19.75,11 C19.75,15.8325 15.8324,19.75 11,19.75 C6.16756,19.75 2.25,15.8325 2.25,11 C2.25,6.1675 6.16756,2.25 11,2.25 M11,2.25"/>
</g>

<g fill="none" stroke="#000000" stroke-opacity="1" stroke-width="1" stroke-linecap="square" stroke-linejoin="bevel" transform="matrix(1,0,0,1,0,0)"
font-family="Noto Sans" font-size="10" font-weight="400" font-style="normal" 
>
</g>
</g>
</svg>
