<?xml version="1.0" encoding="UTF-8" standalone="no"?>
<svg viewBox="0 0 50 50"
 xmlns="http://www.w3.org/2000/svg" xmlns:xlink="http://www.w3.org/1999/xlink" version="1.2" baseProfile="tiny">
<title>Qt SVG Document</title>
<desc>Generated with Qt</desc>
<defs>
</defs>
<g fill="none" stroke="black" stroke-width="1" fill-rule="evenodd" stroke-linecap="square" stroke-linejoin="bevel" >

<g fill="#000000" fill-opacity="1" stroke="none" transform="matrix(2.27273,0,0,2.27273,0,0)"
font-family="Noto Sans" font-size="10" font-weight="400" font-style="normal" 
opacity="0.00100002" >
<rect x="0" y="0" width="22" height="22"/>
</g>

<g fill="#2b4254" fill-opacity="1" stroke="none" transform="matrix(2.27273,0,0,2.27273,0,0)"
font-family="Noto Sans" font-size="10" font-weight="400" font-style="normal" 
opacity="0.0001" >
<path vector-effect="none" fill-rule="nonzero" d="M11,1.84 C6.02953,1.84 2,5.86944 2,10.84 C2,15.8106 6.02953,19.84 11,19.84 C15.9705,19.84 20,15.8106 20,10.84 C20,5.86944 15.9705,1.84 11,1.84 M11,2.965 C15.3492,2.965 18.875,6.49075 18.875,10.84 C18.875,15.1892 15.3492,18.715 11,18.715 C6.6508,18.715 3.125,15.1892 3.125,10.84 C3.125,6.49075 6.6508,2.965 11,2.965 M11,2.965"/>
</g>

<g fill="#4e5a7e" fill-opacity="1" stroke="none" transform="matrix(2.27273,0,0,2.27273,0,0)"
font-family="Noto Sans" font-size="10" font-weight="400" font-style="normal" 
opacity="0.0001" >
<path vector-effect="none" fill-rule="evenodd" d="M3.125,10.9212 C3.125,6.6155 6.6155,3.125 10.9212,3.125 L11.0787,3.125 C15.3845,3.125 18.875,6.6155 18.875,10.9212 L18.875,11.0787 C18.875,15.3845 15.3845,18.875 11.0787,18.875 L10.9212,18.875 C6.6155,18.875 3.125,15.3845 3.125,11.0787 L3.125,10.9212"/>
</g>

<g fill="#ffffff" fill-opacity="1" stroke="none" transform="matrix(2.27273,0,0,2.27273,0,0)"
font-family="Noto Sans" font-size="10" font-weight="400" font-style="normal" 
>
<path vector-effect="none" fill-rule="nonzero" d="M4.93236,9.9 C5.06036,9.90011 5.18308,9.95105 5.27353,10.0416 L10.9672,15.7353 L16.6609,10.0416 C16.8511,9.86441 17.1475,9.86966 17.3314,10.0535 C17.5152,10.2373 17.5204,10.5337 17.3432,10.724 L11.3084,16.7588 C11.1199,16.9471 10.8145,16.9471 10.626,16.7588 L4.59119,10.724 C4.4533,10.5859 4.41207,10.3784 4.48673,10.1981 C4.56138,10.0178 4.73722,9.90017 4.93236,9.9 "/>
</g>

<g fill="#ffffff" fill-opacity="1" stroke="none" transform="matrix(2.27273,0,0,2.27273,0,0)"
font-family="Noto Sans" font-size="10" font-weight="400" font-style="normal" 
>
<path vector-effect="none" fill-rule="nonzero" d="M16.9904,11.84 C16.8624,11.8399 16.7397,11.7889 16.6492,11.6984 L10.9556,6.0047 L5.26186,11.6984 C5.07163,11.8756 4.77524,11.8703 4.59141,11.6865 C4.40758,11.5027 4.40232,11.2063 4.57952,11.016 L10.6144,4.98119 C10.8029,4.79294 11.1082,4.79294 11.2967,4.98119 L17.3316,11.016 C17.4695,11.1541 17.5107,11.3616 17.436,11.5419 C17.3614,11.7222 17.1855,11.8398 16.9904,11.84 "/>
</g>

<g fill="none" stroke="#000000" stroke-opacity="1" stroke-width="1" stroke-linecap="square" stroke-linejoin="bevel" transform="matrix(1,0,0,1,0,0)"
font-family="Noto Sans" font-size="10" font-weight="400" font-style="normal" 
>
</g>
</g>
</svg>
