<?xml version="1.0" encoding="UTF-8" standalone="no"?>
<svg viewBox="0 0 50 50"
 xmlns="http://www.w3.org/2000/svg" xmlns:xlink="http://www.w3.org/1999/xlink" version="1.2" baseProfile="tiny">
<title>Qt SVG Document</title>
<desc>Generated with Qt</desc>
<defs>
</defs>
<g fill="none" stroke="black" stroke-width="1" fill-rule="evenodd" stroke-linecap="square" stroke-linejoin="bevel" >

<g fill="#000000" fill-opacity="1" stroke="none" transform="matrix(2.27273,0,0,2.27273,0,0)"
font-family="Noto Sans" font-size="10" font-weight="400" font-style="normal" 
opacity="0.00100002" >
<rect x="0" y="0" width="22" height="22"/>
</g>

<g fill="#2b4254" fill-opacity="1" stroke="none" transform="matrix(2.27273,0,0,2.27273,0,0)"
font-family="Noto Sans" font-size="10" font-weight="400" font-style="normal" 
opacity="0.0001" >
<path vector-effect="none" fill-rule="nonzero" d="M11,2 C6.02953,2 2,6.02944 2,11 C2,15.9706 6.02953,20 11,20 C15.9705,20 20,15.9706 20,11 C20,6.02944 15.9705,2 11,2 M11,3.125 C15.3492,3.125 18.875,6.65075 18.875,11 C18.875,15.3492 15.3492,18.875 11,18.875 C6.6508,18.875 3.125,15.3492 3.125,11 C3.125,6.65075 6.6508,3.125 11,3.125 M11,3.125"/>
</g>

<g fill="#4e5a7e" fill-opacity="1" stroke="none" transform="matrix(2.27273,0,0,2.27273,0,0)"
font-family="Noto Sans" font-size="10" font-weight="400" font-style="normal" 
opacity="0.0001" >
<path vector-effect="none" fill-rule="evenodd" d="M3.125,10.9212 C3.125,6.6155 6.6155,3.125 10.9212,3.125 L11.0787,3.125 C15.3845,3.125 18.875,6.6155 18.875,10.9212 L18.875,11.0787 C18.875,15.3845 15.3845,18.875 11.0787,18.875 L10.9212,18.875 C6.6155,18.875 3.125,15.3845 3.125,11.0787 L3.125,10.9212"/>
</g>

<g fill="#ffffff" fill-opacity="1" stroke="none" transform="matrix(2.27273,0,0,2.27273,0,0)"
font-family="Noto Sans" font-size="10" font-weight="400" font-style="normal" 
>
<path vector-effect="none" fill-rule="nonzero" d="M5.67596,8 C5.78899,8.0001 5.89736,8.04508 5.97724,8.12506 L11.0052,13.153 L16.0331,8.12506 C16.2011,7.96858 16.4628,7.97322 16.6251,8.13556 C16.7875,8.29789 16.7921,8.55962 16.6356,8.72761 L11.3064,14.0568 C11.14,14.223 10.8703,14.223 10.7039,14.0568 L5.37468,8.72761 C5.25291,8.60569 5.21651,8.42245 5.28243,8.26324 C5.34835,8.10402 5.50364,8.00015 5.67596,8 "/>
</g>

<g fill="none" stroke="#000000" stroke-opacity="1" stroke-width="1" stroke-linecap="square" stroke-linejoin="bevel" transform="matrix(1,0,0,1,0,0)"
font-family="Noto Sans" font-size="10" font-weight="400" font-style="normal" 
>
</g>
</g>
</svg>
