<?xml version="1.0" encoding="UTF-8" standalone="no"?>
<svg viewBox="0 0 50 50"
 xmlns="http://www.w3.org/2000/svg" xmlns:xlink="http://www.w3.org/1999/xlink" version="1.2" baseProfile="tiny">
<title>Qt SVG Document</title>
<desc>Generated with Qt</desc>
<defs>
</defs>
<g fill="none" stroke="black" stroke-width="1" fill-rule="evenodd" stroke-linecap="square" stroke-linejoin="bevel" >

<g fill="#000000" fill-opacity="1" stroke="none" transform="matrix(2.27273,0,0,2.27273,0,0)"
font-family="Noto Sans" font-size="10" font-weight="400" font-style="normal" 
opacity="0.00100002" >
<rect x="0" y="0" width="22" height="22"/>
</g>

<g fill="#cca500" fill-opacity="1" stroke="none" transform="matrix(2.27273,0,0,2.27273,0,0)"
font-family="Noto Sans" font-size="10" font-weight="400" font-style="normal" 
>
<path vector-effect="none" fill-rule="evenodd" d="M2,10.91 C2,5.98914 5.98914,2 10.91,2 L11.09,2 C16.0109,2 20,5.98914 20,10.91 L20,11.09 C20,16.0109 16.0109,20 11.09,20 L10.91,20 C5.98914,20 2,16.0109 2,11.09 L2,10.91"/>
</g>

<g fill="#000000" fill-opacity="1" stroke="none" transform="matrix(2.27273,0,0,2.27273,0,0)"
font-family="Noto Sans" font-size="10" font-weight="400" font-style="normal" 
>
<path vector-effect="none" fill-rule="nonzero" d="M5.67596,8 C5.78899,8.0001 5.89736,8.04517 5.97724,8.12531 L11.0052,13.1633 L16.0331,8.12531 C16.2011,7.96852 16.4628,7.97317 16.6251,8.13583 C16.7875,8.29849 16.7921,8.56074 16.6356,8.72907 L11.3064,14.0689 C11.14,14.2355 10.8703,14.2355 10.7039,14.0689 L5.37468,8.72907 C5.25291,8.6069 5.21651,8.42329 5.28243,8.26376 C5.34835,8.10423 5.50364,8.00015 5.67596,8 "/>
</g>

<g fill="#405b8c" fill-opacity="1" stroke="none" transform="matrix(2.27273,0,0,2.27273,0,0)"
font-family="Noto Sans" font-size="10" font-weight="400" font-style="normal" 
>
<path vector-effect="none" fill-rule="nonzero" d="M11,1 C5.47726,1 1,5.47716 1,11 C1,16.5228 5.47726,21 11,21 C16.5228,21 21,16.5228 21,11 C21,5.47716 16.5228,1 11,1 M11,2.25 C15.8324,2.25 19.75,6.1675 19.75,11 C19.75,15.8325 15.8324,19.75 11,19.75 C6.16756,19.75 2.25,15.8325 2.25,11 C2.25,6.1675 6.16756,2.25 11,2.25 M11,2.25"/>
</g>

<g fill="none" stroke="#000000" stroke-opacity="1" stroke-width="1" stroke-linecap="square" stroke-linejoin="bevel" transform="matrix(1,0,0,1,0,0)"
font-family="Noto Sans" font-size="10" font-weight="400" font-style="normal" 
>
</g>
</g>
</svg>
