<?xml version="1.0" encoding="UTF-8" standalone="no"?>
<svg viewBox="0 0 50 50"
 xmlns="http://www.w3.org/2000/svg" xmlns:xlink="http://www.w3.org/1999/xlink" version="1.2" baseProfile="tiny">
<title>Qt SVG Document</title>
<desc>Generated with Qt</desc>
<defs>
</defs>
<g fill="none" stroke="black" stroke-width="1" fill-rule="evenodd" stroke-linecap="square" stroke-linejoin="bevel" >

<g fill="#000000" fill-opacity="1" stroke="none" transform="matrix(2.27273,0,0,2.27273,59.0909,-64)"
font-family="Noto Sans" font-size="10" font-weight="400" font-style="normal" 
opacity="0.00100002" >
<rect x="-26" y="28.16" width="22" height="22"/>
</g>

<g fill="#2b4254" fill-opacity="1" stroke="none" transform="matrix(2.27273,0,0,2.27273,59.0909,-64)"
font-family="Noto Sans" font-size="10" font-weight="400" font-style="normal" 
opacity="0.0001" >
<path vector-effect="none" fill-rule="nonzero" d="M-15,30.16 C-19.9705,30.16 -24,34.1894 -24,39.16 C-24,44.1306 -19.9705,48.16 -15,48.16 C-10.0295,48.16 -6,44.1306 -6,39.16 C-6,34.1894 -10.0295,30.16 -15,30.16 M-15,31.285 C-10.6508,31.285 -7.125,34.8107 -7.125,39.16 C-7.125,43.5092 -10.6508,47.035 -15,47.035 C-19.3492,47.035 -22.875,43.5092 -22.875,39.16 C-22.875,34.8107 -19.3492,31.285 -15,31.285 M-15,31.285"/>
</g>

<g fill="#4e5a7e" fill-opacity="1" stroke="none" transform="matrix(2.27273,0,0,2.27273,59.0909,-64)"
font-family="Noto Sans" font-size="10" font-weight="400" font-style="normal" 
opacity="0.0001" >
<path vector-effect="none" fill-rule="evenodd" d="M-22.875,39.0812 C-22.875,34.7755 -19.3845,31.285 -15.0788,31.285 L-14.9213,31.285 C-10.6155,31.285 -7.12501,34.7755 -7.12501,39.0812 L-7.12501,39.2387 C-7.12501,43.5445 -10.6155,47.035 -14.9213,47.035 L-15.0788,47.035 C-19.3845,47.035 -22.875,43.5445 -22.875,39.2387 L-22.875,39.0812"/>
</g>

<g fill="#a6a6a6" fill-opacity="1" stroke="none" transform="matrix(2.27273,0,0,2.27273,59.0909,-64)"
font-family="Noto Sans" font-size="10" font-weight="400" font-style="normal" 
opacity="0.981527" >
<path vector-effect="none" fill-rule="nonzero" d="M-20.324,36.16 C-20.211,36.1601 -20.1026,36.2051 -20.0228,36.2851 L-14.9948,41.313 L-9.96693,36.2851 C-9.79894,36.1286 -9.53721,36.1332 -9.37488,36.2956 C-9.21254,36.4579 -9.2079,36.7196 -9.36438,36.8876 L-14.6936,42.2168 C-14.86,42.383 -15.1297,42.383 -15.2961,42.2168 L-20.6253,36.8876 C-20.7471,36.7657 -20.7835,36.5824 -20.7176,36.4232 C-20.6516,36.264 -20.4964,36.1602 -20.324,36.16 "/>
</g>

<g fill="none" stroke="#000000" stroke-opacity="1" stroke-width="1" stroke-linecap="square" stroke-linejoin="bevel" transform="matrix(1,0,0,1,0,0)"
font-family="Noto Sans" font-size="10" font-weight="400" font-style="normal" 
>
</g>
</g>
</svg>
